<svg id="bin" xmlns="http://www.w3.org/2000/svg" width="50.513" height="62.194" viewBox="0 0 50.513 62.194">
  <path id="Path_34" data-name="Path 34" d="M223.855,154.7a1.456,1.456,0,0,0-1.457,1.457v27.528a1.457,1.457,0,0,0,2.913,0V156.16A1.456,1.456,0,0,0,223.855,154.7Zm0,0" transform="translate(-190.005 -132.17)" fill="#ff5858"/>
  <path id="Path_35" data-name="Path 35" d="M105.855,154.7a1.456,1.456,0,0,0-1.457,1.457v27.528a1.457,1.457,0,1,0,2.913,0V156.16A1.456,1.456,0,0,0,105.855,154.7Zm0,0" transform="translate(-89.192 -132.17)" fill="#ff5858"/>
  <path id="Path_36" data-name="Path 36" d="M4.134,18.514V54.4A8.036,8.036,0,0,0,6.27,59.942a7.173,7.173,0,0,0,5.2,2.25H39.032a7.171,7.171,0,0,0,5.2-2.25A8.036,8.036,0,0,0,46.373,54.4V18.514A5.564,5.564,0,0,0,44.945,7.573H37.488V5.752A5.721,5.721,0,0,0,31.72,0H18.786a5.721,5.721,0,0,0-5.768,5.753V7.573H5.561A5.564,5.564,0,0,0,4.134,18.514Zm34.9,40.765H11.474A4.613,4.613,0,0,1,7.047,54.4V18.642H43.46V54.4A4.613,4.613,0,0,1,39.032,59.279ZM15.931,5.752a2.806,2.806,0,0,1,2.855-2.84H31.72a2.806,2.806,0,0,1,2.855,2.84V7.573H15.931ZM5.561,10.486H44.945a2.622,2.622,0,0,1,0,5.243H5.561a2.622,2.622,0,1,1,0-5.243Zm0,0" transform="translate(0.003 0.001)" fill="#ff5858"/>
  <path id="Path_37" data-name="Path 37" d="M164.855,154.7a1.456,1.456,0,0,0-1.457,1.457v27.528a1.457,1.457,0,0,0,2.913,0V156.16A1.456,1.456,0,0,0,164.855,154.7Zm0,0" transform="translate(-139.599 -132.17)" fill="#ff5858"/>
</svg>
